<svg xmlns="http://www.w3.org/2000/svg" xmlns:xlink="http://www.w3.org/1999/xlink" width="513.2" height="72.199" viewBox="0 0 513.2 72.199">
  <defs>
    <linearGradient id="linear-gradient" y1="0.5" x2="0.955" y2="0.5" gradientUnits="objectBoundingBox">
      <stop offset="0" stop-color="#0080fe"/>
      <stop offset="1" stop-color="#6dfff0"/>
    </linearGradient>
  </defs>
  <path id="パス_73" data-name="パス 73" d="M40.8,1A38.571,38.571,0,0,1,26.2-1.75,36.441,36.441,0,0,1,14.35-9.4a35.555,35.555,0,0,1-7.9-11.45A35.076,35.076,0,0,1,3.6-35,35.327,35.327,0,0,1,6.45-49.25,35.18,35.18,0,0,1,14.4-60.7a37.161,37.161,0,0,1,11.85-7.65A38.192,38.192,0,0,1,40.8-71.1,39.216,39.216,0,0,1,52-69.5,40.793,40.793,0,0,1,62.05-65,31.514,31.514,0,0,1,70-58l-9.8,9.7a25.586,25.586,0,0,0-8.75-7.1A24.089,24.089,0,0,0,40.8-57.8,22.179,22.179,0,0,0,32-56.05a21.9,21.9,0,0,0-7.1,4.8,22.082,22.082,0,0,0-4.7,7.2A23.647,23.647,0,0,0,18.5-35a22.433,22.433,0,0,0,1.75,8.9,23.083,23.083,0,0,0,4.8,7.2,21.2,21.2,0,0,0,7.25,4.8,23.758,23.758,0,0,0,9,1.7,23.529,23.529,0,0,0,10.3-2.3A24.943,24.943,0,0,0,60-21.3l9.6,9.4A32.879,32.879,0,0,1,61.7-5,38.8,38.8,0,0,1,51.75-.55,39.153,39.153,0,0,1,40.8,1Zm70.1.1A37.927,37.927,0,0,1,96.45-1.65a36.161,36.161,0,0,1-11.8-7.7,35.462,35.462,0,0,1-7.85-11.5A35.617,35.617,0,0,1,74-35a33.934,33.934,0,0,1,2.75-14.15,36.132,36.132,0,0,1,7.9-11.5,36.3,36.3,0,0,1,11.75-7.7,37.816,37.816,0,0,1,14.5-2.75,37.816,37.816,0,0,1,14.5,2.75,36.876,36.876,0,0,1,11.8,7.7,35.089,35.089,0,0,1,7.9,11.5A35.618,35.618,0,0,1,147.9-35a35.617,35.617,0,0,1-2.8,14.15,35.089,35.089,0,0,1-7.9,11.5,36.876,36.876,0,0,1-11.8,7.7A37.816,37.816,0,0,1,110.9,1.1Zm0-13.3a21.718,21.718,0,0,0,8.8-1.75,22.2,22.2,0,0,0,7-4.8,22.082,22.082,0,0,0,4.7-7.2A23.647,23.647,0,0,0,133.1-35a25.721,25.721,0,0,0-1.75-9.05,21.436,21.436,0,0,0-4.65-7.2,22.2,22.2,0,0,0-7-4.8,21.718,21.718,0,0,0-8.8-1.75,21.466,21.466,0,0,0-8.7,1.75,22.2,22.2,0,0,0-7,4.8,22.083,22.083,0,0,0-4.7,7.2A23.647,23.647,0,0,0,88.8-35a23.758,23.758,0,0,0,1.7,9,21.957,21.957,0,0,0,4.7,7.25,22.2,22.2,0,0,0,7,4.8A21.466,21.466,0,0,0,110.9-12.2ZM157.9,0V-70h18.7l19.1,37.7L214.9-70h18.6V0H219.8V-51.5L195.6-5,171.3-51.6V0Zm88.2,0V-70h35.1a25.433,25.433,0,0,1,12.15,2.8,21.366,21.366,0,0,1,8.3,7.75A21.38,21.38,0,0,1,304.7-48a20.824,20.824,0,0,1-3.05,11.15,21.276,21.276,0,0,1-8.35,7.75,25.51,25.51,0,0,1-12.1,2.8H260.7V0Zm14.6-38.4h18.9a10.768,10.768,0,0,0,7.55-2.6A8.89,8.89,0,0,0,290-47.9a9.047,9.047,0,0,0-2.85-6.95,10.644,10.644,0,0,0-7.55-2.65H260.7ZM297.1,0l28.8-70h16.8L371.1,0H355.4l-7.1-18.3H319.4L312.2,0Zm26.8-30h20L334-55.8ZM377,0V-70h13.8l34.7,45.2V-70h13.7V0H426.4L390.7-46.7V0Zm96.6,0V-26.8L445-70h16.7l19.6,30.4L501-70h15.8L488.2-26.7V0Z" transform="translate(-3.6 71.1)" opacity="0.2" fill="url(#linear-gradient)"/>
</svg>
